
<global>
amp_veltrack=0
ampeg_release=0.65
xf_cccurve=gain
xfin_hicc1=127
xfout_hicc1=127
xfout_locc1=127
</global>

<group>
group_label=PP
lpc_hicc1=42
lpc_locc1=0

<region>
hikey=A3
hivel=127
lokey=G#3
loop_end=203049
loop_mode=loop_continuous
loop_start=71722
loop_xfade=39398
lovel=1
lpc=9ZYwQ29h4cPIoaZDapWowllp0kJUjWrCemUswsmW0kHTgxG/6cGSwaD0KkEUfuDAqCETQWgXRkFrDS7BW0LEQMfKnz8jfTHBpWQYQDVerz7PFy3AQpqXPxyO+EDOhJjA
lpc_rms=-43.24
offset=12970
pitch_keycenter=G#3
sample=Basstrombone_growl_PP_G#4.opus
tune=+8
</region>

<region>
hikey=A2
hivel=127
lokey=G#2
loop_end=203049
loop_mode=loop_continuous
loop_start=71722
loop_xfade=39398
lovel=1
lpc=78QAQ6OVtcMYirNDo4lAwxbdF0Nzb97CzcW+QWk5J0F0sbrAiE8nwR3HUEE5c0bBUTk+QUg5kUCrMlnBaygtQVjZhsDdvYXAQyyAQBP0cL2jEDrAxSLSQIEWtcAkBds/
lpc_rms=-45.31
offset=13674
pitch_keycenter=G#2
sample=Basstrombone_growl_PP_G#3.opus
tune=-9
</region>

<region>
hikey=A1
hivel=127
lokey=G#1
loop_end=203049
loop_mode=loop_continuous
loop_start=71722
loop_xfade=39398
lovel=1
lpc=+evoQrPWZ8NRYLFCc3QoQVPzGkKB6AHB37jfv7ql4cCRBQ7AeumEwA8TDMB77mjALqQkQBP3RUCYuFNActekvr0oBT0z/ru/JM0PvpZw9D5T+J4+od/Qv/SnDsDY3jtA
lpc_rms=-54.25
offset=18719
pitch_keycenter=G#1
sample=Basstrombone_growl_PP_G#2.opus
tune=+18
</region>

<region>
hikey=G3
hivel=127
lokey=F#3
loop_end=203049
loop_mode=loop_continuous
loop_start=71722
loop_xfade=39398
lovel=1
lpc=DQFTQ3DpBMSaq71DXsWiwh95z0KQelPCiPYTwpqxLEHfkb7ARm8iwQs3IUG/VBPBjWVuQWlqQEFiqo7Bw2YyQR3Yg75fK1zBXF8DQbFOu755AfK/M4EIQOOCjr8EkwM/
lpc_rms=-41.67
offset=13361
pitch_keycenter=F#3
sample=Basstrombone_growl_PP_F#4.opus
tune=-17
</region>

<region>
hikey=G2
hivel=127
lokey=F#2
loop_end=203049
loop_mode=loop_continuous
loop_start=71722
loop_xfade=39398
lovel=1
lpc=irQBQ/anucM6h7tDdjdMw/PmJUP2FwrDXvsnQnYzFEEOb97APnuBwPO8MkAlkEjBBiSoQUfq18BUT//A7NGUQYMwpcHJSURBZtRJwNTeQcCUKI1A+b1/wKhHO0Cz8Vu/
lpc_rms=-44.71
offset=13769
pitch_keycenter=F#2
sample=Basstrombone_growl_PP_F#3.opus
tune=-39
</region>

<region>
hikey=G1
hivel=127
lokey=F#1
loop_end=203049
loop_mode=loop_continuous
loop_start=71722
loop_xfade=39398
lovel=1
lpc=xoPOQpNqVcOenrdCXjf4QEPBE0KmQ0fBSbmewGK0DcH+PZO/SQedvpS5q76BSTnALNQIQFVzvz9ZqvM/H/vWP2APdr8y4yu97DGXv8UAbz+fziS/Vw9mP+39mcBcml9A
lpc_rms=-55.09
offset=22971
pitch_keycenter=F#1
sample=Basstrombone_growl_PP_F#2.opus
tune=+20
</region>

<region>
hikey=F3
hivel=127
lokey=E3
loop_end=203049
loop_mode=loop_continuous
loop_start=71722
loop_xfade=39398
lovel=1
lpc=AqwuQ0sX18Ns+o9Dhbw4wjFJp0ItryDCpWs8wqvChEHjLJZAqmKXwUIUU0FN+AnATOTeP70NJUGohg7B1CVWP1cZpkBtmALBLQchQDqIo0AMdVzA71efP4cj+MBBdLpA
lpc_rms=-42.82
offset=14745
pitch_keycenter=E3
sample=Basstrombone_growl_PP_E4.opus
tune=-15
</region>

<region>
hikey=F2
hivel=127
lokey=E2
loop_end=203049
loop_mode=loop_continuous
loop_start=71722
loop_xfade=39398
lovel=1
lpc=bCP/QtzTt8NGI7BDvYsBwxOBmUKnfLLCTTt5QdcG0kEJPSXBUAe8wJW0wL/VQqlA44C4QCsYgr/p+cLAUY6XQADKysDbDXBAS5cZP+8Lqr9fuIW/wl8KQX7DK8GJin5A
lpc_rms=-44.25
offset=15087
pitch_keycenter=E2
sample=Basstrombone_growl_PP_E3.opus
tune=-11
</region>

<region>
hikey=F1
hivel=127
lokey=E1
loop_end=195068
loop_mode=loop_continuous
loop_start=68903
loop_xfade=37849
lovel=1
lpc=wIDXQnAjY8M34NNC5X2bQEwpDULtp37BYfBvwFZPFsEszohAoOnMPu8EXMDaF4rAxV0IQJkqY0BAHt4/4M6/P8JeZsBvbT4/RQ8+vrywXj25EZY/pQzMuzfEnMCutWlA
lpc_rms=-54.38
offset=11468
pitch_keycenter=E1
sample=Basstrombone_growl_PP_E2.opus
tune=+31
</region>

<region>
hikey=D#3
hivel=127
lokey=D3
loop_end=203049
loop_mode=loop_continuous
loop_start=71722
loop_xfade=39398
lovel=1
lpc=7wkpQx7cvsOT3kpDHu6MQV0f6UG+AEjBSIjJwamcAUEhtmLAxzl3wQnNHUCArDBAEQyzQD2qB0FaYjbAUzhJwHkY7j8OXV7AJU1CwNYXh7wlVCc/AB0hP8mQB0EcG87A
lpc_rms=-41.60
offset=15754
pitch_keycenter=D3
sample=Basstrombone_growl_PP_D4.opus
tune=-9
</region>

<region>
hikey=D#2
hivel=127
lokey=D2
loop_end=203049
loop_mode=loop_continuous
loop_start=71722
loop_xfade=39398
lovel=1
lpc=jKgFQ2kJuMMHeJtD+9KAwk9lBkIeAYPCR3MAQYWIqkGzaQfBS98UwemS1z/5SPRAYU+8QJustMCYIkQ/2plFv00sGMFVSj1BJYuBv6rV8cDEDw5BwVNjPy/XE8G9MpRA
lpc_rms=-46.86
offset=14496
pitch_keycenter=D2
sample=Basstrombone_growl_PP_D3.opus
tune=-10
</region>

<region>
hikey=C#3
hivel=127
lokey=C3
loop_end=203049
loop_mode=loop_continuous
loop_start=71722
loop_xfade=39398
lovel=1
lpc=An01Q8Vn38Pzd5ZD3gL/wSruWkIRoSvCf07RweQaeEFj+ebA8K+ywIf3Q0AOfibAp/MbQR9xN0DTIzfAoil5QHmrssCT3Xq/BfN+PyH0jsAHxvNAHCDHv65YdsAM4CZA
lpc_rms=-42.77
offset=14414
pitch_keycenter=C3
sample=Basstrombone_growl_PP_C4.opus
tune=-4
</region>

<region>
hikey=C#2
hivel=127
lokey=C2
loop_end=203049
loop_mode=loop_continuous
loop_start=71722
loop_xfade=39398
lovel=1
lpc=kc7eQuKej8PcM1JDL3iPwYglgUHkowLC0PYIweX9/kB4Y0lA0MnzwDF7ZzyGBLpAVSfKP+X7kL4UT78/wWGSvuhsmMB3HKA+rhSZPrw8xr8VzLZAMh7rP407AMEKTF9A
lpc_rms=-49.34
offset=12068
pitch_keycenter=C2
sample=Basstrombone_growl_PP_C3.opus
tune=-58
</region>

<region>
hivel=127
key=A#3
loop_end=228153
loop_mode=loop_continuous
loop_start=80590
loop_xfade=44268
lovel=1
lpc=QuQWQ+/h0cMlocpDNqtnwwbcXUND/x7D1zSOQebS4kHBdP7A1OKzwSEBkUHN3hrBJtP3QEYfg0EY+5zB8GwCQWAsOsCVPffAfbcLQbZzTsCtmz5A12SxvjINSMD9ZPU/
lpc_rms=-43.35
offset=13177
sample=Basstrombone_growl_PP_A#4.opus
tune=+9
</region>

<region>
hikey=B2
hivel=127
lokey=A#2
loop_end=203049
loop_mode=loop_continuous
loop_start=71722
loop_xfade=39398
lovel=1
lpc=7sTKQkWoUcN4t7FCdHuSQVGGnUEM0hjAi8hHwYK4BT/HRNO+QRPJwFPbTr8vh/u+ismavq7FbUDNSL8/DF2PP9EhTT8OR6C/DLdMv0qPNL/uIF2+UENyvsAODj9AG/89
lpc_rms=-44.44
offset=15540
pitch_keycenter=A#2
sample=Basstrombone_growl_PP_A#3.opus
tune=-4
</region>

<region>
hikey=B1
hivel=127
lokey=A#1
loop_end=203049
loop_mode=loop_continuous
loop_start=71722
loop_xfade=39398
lovel=1
lpc=4t3CQssxg8P3nGVD+k2xwjVfnkKBa4nCt5ePQGg0A0H+sjxAtcKZwFtWSD/gFYY/9gshQOWxjkBKy9LAFjRxQCDR7sDWASpAO2x1QGfmp8CMCJtAiYU+QAHj+cCD/FJA
lpc_rms=-49.06
offset=14867
pitch_keycenter=A#1
sample=Basstrombone_growl_PP_A#2.opus
tune=+44
</region>
</group>

<group>
group_label=MF
lpc_hicc1=84
lpc_locc1=43

<region>
hikey=A3
hivel=127
lokey=G#3
loop_end=203049
loop_mode=loop_continuous
loop_start=71722
loop_xfade=39398
lovel=1
lpc=JalFQ3ekG8QiSDBEMBu6w0obQ0OQ2zDD7XHkQpnZhsJt8JRBpOrOQHZsHkE6Wi5BWa4Lwutnw0HhHz3Bmr4fwGnaUj8OarNB2HOwwW4L6sCfFulB0T2JwXbVvcCX2spA
lpc_rms=-30.85
offset=7490
pitch_keycenter=G#3
sample=Basstrombone_growl_MF_G#4.opus
tune=-11
</region>

<region>
hikey=A2
hivel=127
lokey=G#2
loop_end=203049
loop_mode=loop_continuous
loop_start=71722
loop_xfade=39398
lovel=1
lpc=NkE4Q9hmCMTdXglEJJx3w2s1I0OyMATDehVqQTpCLkH6IOLAZg0WQWqRj8D4sU5BQ5pYQP0mf8EOZfJAh0Grv3SJEsElfHZBuwiIwQPl3EDAuHBBg9olwQNCB8HAN9FA
lpc_rms=-37.74
offset=4615
pitch_keycenter=G#2
sample=Basstrombone_growl_MF_G#3.opus
tune=-15
</region>

<region>
hikey=A1
hivel=127
lokey=G#1
loop_end=203049
loop_mode=loop_continuous
loop_start=71722
loop_xfade=39398
lovel=1
lpc=9uNKQ6v1F8TiJhhEY8hzw8MxGUPk8TTDMZO6Qu0lccLvhWhCXGhXwpOv9UGNPJFB7duiwSt85kEuzFLCNl0PQgVxwMEdWZFBEHUUQfBN38EmAthBQK7jwELwTMEVOAVB
lpc_rms=-40.32
offset=6553
pitch_keycenter=G#1
sample=Basstrombone_growl_MF_G#2.opus
tune=-15
</region>

<region>
hikey=G3
hivel=127
lokey=F#3
loop_end=203049
loop_mode=loop_continuous
loop_start=71722
loop_xfade=39398
lovel=1
lpc=iv4WQ9VLwMOYgoJDnDK7Qcbyo8E70enBgaACwcqH277cOt4+riaPQBvf+kBvVZw/TmHPwLtcA8A6RnY/dYHlP6HfvT8L9JM/DzpLwIlq2b9Wkj5AG1q5P7DcQsCG+G8/
lpc_rms=-33.71
offset=6805
pitch_keycenter=F#3
sample=Basstrombone_growl_MF_F#4.opus
tune=-27
</region>

<region>
hikey=G2
hivel=127
lokey=F#2
loop_end=202444
loop_mode=loop_continuous
loop_start=71509
loop_xfade=39280
lovel=1
lpc=9IsiQwpN98OHgwBEtgJew0g9AENfxAPD8JQfQuRxOcHPRnpBJW4EQCRPkMCFI2VBo5sHwT4aEsFG5MY/9JLkQGRm1cA8EBdB/wvfwKMLUMAG7hhBTlnBwG4TLD+43cQ+
lpc_rms=-38.97
offset=5693
pitch_keycenter=F#2
sample=Basstrombone_growl_MF_F#3.opus
tune=-37
</region>

<region>
hikey=G1
hivel=127
lokey=F#1
loop_end=202557
loop_mode=loop_continuous
loop_start=71548
loop_xfade=39302
lovel=1
lpc=hWvcQr94ocPA26VDFqgbwzx2rEK+LJ3CyqAOQkcg48AaFElAHNYCwZBLpUBmVwlBC76rwQym5EE3vKDBQS2rP/pPaj8LhTdBv/otwU+f7MA+TbBBg3BewWUvrL98xjdA
lpc_rms=-45.50
offset=3726
pitch_keycenter=F#1
sample=Basstrombone_growl_MF_F#2.opus
tune=-10
</region>

<region>
hikey=F3
hivel=127
lokey=E3
loop_end=203049
loop_mode=loop_continuous
loop_start=71722
loop_xfade=39398
lovel=1
lpc=nUULQ3+76cOkGRlEDiLlw3Cmq0P3LZTDWH9WQ/i0IsO+0OFCyr9qwnjcDEKy87rAoKaIwYa6gkElHqTBENfYQc+Y4sF67wJCxA/1wT9nSkHKKe9Ax+ZywSdOKEEg3D3A
lpc_rms=-34.70
offset=8732
pitch_keycenter=E3
sample=Basstrombone_growl_MF_E4.opus
tune=-13
</region>

<region>
hikey=F2
hivel=127
lokey=E2
loop_end=201005
loop_mode=loop_continuous
loop_start=71000
loop_xfade=39001
lovel=1
lpc=NdEUQ4fw7MMuggpETFydw9voMkPimCbDSp3OQuT3QcIMAgpCl9bDwXLeoT+W20tBcjWJQN+VU8GQrLS/d/JfQWoPfcG4v2VBuhBCweFuB0By8YFAOXGWQEULGsH0sHRA
lpc_rms=-39.57
offset=1867
pitch_keycenter=E2
sample=Basstrombone_growl_MF_E3.opus
tune=+16
</region>

<region>
hikey=F1
hivel=127
lokey=E1
loop_end=203049
loop_mode=loop_continuous
loop_start=71722
loop_xfade=39398
lovel=1
lpc=rqX7QmPXvsMk2spD4UU9w7+xz0KsotXCb0QwQmP3nb9twB9AsYCrwDCpxz9S6LxAhjN7wbmr20G47Z3BHjsMwBz2dkBajuxA+E8PwVigHz80BtJAT8IAP3rQFMEIGKBA
lpc_rms=-43.96
offset=6944
pitch_keycenter=E1
sample=Basstrombone_growl_MF_E2.opus
tune=-7
</region>

<region>
hikey=D#3
hivel=127
lokey=D3
loop_end=203049
loop_mode=loop_continuous
loop_start=71722
loop_xfade=39398
lovel=1
lpc=JFE7Q/YdEMT6Oh5EvA+iw/gNJkPUKQvDC9GsQi3iNsJ1ISxAgr0QQfZWn8DKVChBuYcsQO4JgsAigSfB5BNaQSDK2MC9iztAx6AKwRf5vUB50clAGp8lwUi050CyfynA
lpc_rms=-34.79
offset=7173
pitch_keycenter=D3
sample=Basstrombone_growl_MF_D4.opus
tune=-24
</region>

<region>
hikey=D#2
hivel=127
lokey=D2
loop_end=203049
loop_mode=loop_continuous
loop_start=71722
loop_xfade=39398
lovel=1
lpc=khsTQ6IR9cNMTRZE5XSlw9O/AkNm/erC6+eoQpTtH8J96dZBZmi4wYs+Q0FDmyhBunE1wT3k2MBiFL5AwK4CQU/gVcH9wzpBeLUUwS3Kcb18VglBF7wdwLSXnsCzPTBA
lpc_rms=-39.58
offset=1876
pitch_keycenter=D2
sample=Basstrombone_growl_MF_D3.opus
tune=-13
</region>

<region>
hikey=C#3
hivel=127
lokey=C3
loop_end=203049
loop_mode=loop_continuous
loop_start=71722
loop_xfade=39398
lovel=1
lpc=8xJTQ+MvG8SBphFEEB4Mw168jEFtoJ7CD8icQUld18C3RohA++akQRGU/D8u5orAglajwJRnAcCBkrXApeXOQElTxD7QxtBAfTu2wNv33MBVfi5Bxu8+QCPVecEiLAhB
lpc_rms=-33.39
offset=7479
pitch_keycenter=C3
sample=Basstrombone_growl_MF_C4.opus
tune=-15
</region>

<region>
hikey=C#2
hivel=127
lokey=C2
loop_end=202800
loop_mode=loop_continuous
loop_start=71635
loop_xfade=39349
lovel=1
lpc=BusOQ1dW6sMoCAxEX4eRw2Gy10JRMt3C5EOhQi5RssHmDLI9arcRwKQDTED06QxBeD0kwbecfT/cShTAAtUFQaGRHMENEghBhreCwL9hkcB7V/tALpXzP/K6EcFO9opA
lpc_rms=-42.55
offset=7465
pitch_keycenter=C2
sample=Basstrombone_growl_MF_C3.opus
tune=-10
</region>

<region>
hivel=127
key=A#3
loop_end=228153
loop_mode=loop_continuous
loop_start=80590
loop_xfade=44268
lovel=1
lpc=Nj8fQ7oy/cPd/htEyUTqw65x10PeJd/DVr6uQ6dIdMOouB1D7v+xwmurMkLbJSVBwLgrwsHxK0KR5kzCkLhkQnHIb8Kajo1C1Kdnwl2+h0GSxVxBLLFhwTHjIkDkeYY/
lpc_rms=-31.52
offset=6576
sample=Basstrombone_growl_MF_A#4.opus
tune=-4
</region>

<region>
hikey=B2
hivel=127
lokey=A#2
loop_end=203049
loop_mode=loop_continuous
loop_start=71722
loop_xfade=39398
lovel=1
lpc=F5jzQkaFn8PNy3RD9y/iwST4pECtlZ7Bx3YJwRiDiEBTtgPB2QtfQMEgBkBqrwlABngWQfClucDeYcLAncqeQFS8AsCgSRbAv2oRQInHXj8awxo/nBPsPYKX6r+kAUo/
lpc_rms=-38.47
offset=8160
pitch_keycenter=A#2
sample=Basstrombone_growl_MF_A#3.opus
tune=-12
</region>

<region>
hikey=B1
hivel=127
lokey=A#1
loop_end=199959
loop_mode=loop_continuous
loop_start=70631
loop_xfade=38798
lovel=1
lpc=KOXEQlFWlMMxI6JDPvk2wywiCUNu8AzDHS2xQoCQL8KBGMRB5Z4+wdmdOsCVyHdB0Z81wSv+A0Gp42PBogSbQcEwu8FCV6pBxfE+wUp0MUDpSANABRFMP/dukcBC7xVA
lpc_rms=-41.50
offset=1636
pitch_keycenter=A#1
sample=Basstrombone_growl_MF_A#2.opus
tune=+3
</region>
</group>

<group>
group_label=FF
lpc_hicc1=127
lpc_locc1=85

<region>
hikey=A3
hivel=127
lokey=G#3
loop_end=199944
loop_mode=loop_continuous
loop_start=70626
loop_xfade=38795
lovel=1
lpc=EvYMQr/y8MISPz5DZvdJw+OeM0PYExHDQgrRQoq6hcJw0SFCXw/AwUufKEHtshpA9UtBwbWcj0FQQq/B3SfIQcMS0MFCW8BBv+6MwbdT7kC5DIU/10iXwJ35iEB2Cr2/
lpc_rms=-25.24
offset=2521
pitch_keycenter=G#3
sample=Basstrombone_growl_FF_G#4.opus
tune=-25
</region>

<region>
hikey=A2
hivel=127
lokey=G#2
loop_end=203049
loop_mode=loop_continuous
loop_start=71722
loop_xfade=39398
lovel=1
lpc=uFDqQSgDyMKx6SBDPSwxw1kpJEMGIgvDsuvZQoMBoMLUgmZCU+cowppS70GnEo/BSbDzQMNJnb6fvIzAPCwIQSs5RsFBlGRBF7hCwU0EzUAk9AO/uhoFwAUhrz/R1829
lpc_rms=-30.35
offset=2879
pitch_keycenter=G#2
sample=Basstrombone_growl_FF_G#3.opus
tune=-24
</region>

<region>
hikey=A1
hivel=127
lokey=G#1
loop_end=201645
loop_mode=loop_continuous
loop_start=71226
loop_xfade=39125
lovel=1
lpc=rMNRQg/GMsML13pD7fY7wz23vUIrKH/CMGuCQhn6ScKOK65B55tnP+XFeMFeddVBBuHZwVrHOUEwPwxB0d1twcLdFkD+DHFBt0uvwTmiiUEMcS3BQxoGQaydu8AL3gBA
lpc_rms=-36.00
offset=3086
pitch_keycenter=G#1
sample=Basstrombone_growl_FF_G#2.opus
tune=-32
</region>

<region>
hikey=G3
hivel=127
lokey=F#3
loop_end=202201
loop_mode=loop_continuous
loop_start=71423
loop_xfade=39233
lovel=1
lpc=UhMdQinfBcM7+kxD5sVKw3/jJ0OfpwbDY4bLQu1Wi8JMST5Cm0cNwoPdxEHS40zBhN9IQPyYD0A3WpfA8C0QQdt3V8EcTmJBMD0twZu7g0ADT1dAtZbbwA4DoEBn4aq/
lpc_rms=-26.68
offset=2635
pitch_keycenter=F#3
sample=Basstrombone_growl_FF_F#4.opus
tune=-39
</region>

<region>
hikey=G2
hivel=127
lokey=F#2
loop_end=199272
loop_mode=loop_continuous
loop_start=70388
loop_xfade=38665
lovel=1
lpc=+G4TQvYaAMNuQU1DiFJaw+mJPkNDYRbDKrjYQp49jsLpaTJConDmwRjhikEW67vA3udjwM82GkG56VXBWU2BQZvulMGYNZpBPdd5wdVfAUGHIni/2MoKwHEs1j9J94C+
lpc_rms=-32.08
offset=3809
pitch_keycenter=F#2
sample=Basstrombone_growl_FF_F#3.opus
tune=-37
</region>

<region>
hikey=G1
hivel=127
lokey=F#1
loop_end=201745
loop_mode=loop_continuous
loop_start=71262
loop_xfade=39144
lovel=1
lpc=ZUtVQuNgMsOBk3dDdYdDw26G60K0WZDC/SwVQh0DAsGNd66/pRTHwC8ShUFrQprBEh8wQYcVhkDnA4nBhLmeQVsQM8F6CcU92wBdQGDj2r/KsxY/Upu0PzkSMsBWrqo/
lpc_rms=-37.15
offset=4259
pitch_keycenter=F#1
sample=Basstrombone_growl_FF_F#2.opus
tune=-32
</region>

<region>
hikey=F3
hivel=127
lokey=E3
loop_end=200014
loop_mode=loop_continuous
loop_start=70650
loop_xfade=38809
lovel=1
lpc=eZwhQmTYC8Msi11Droxmw4gCRUOlohnDYRfbQun/jsKigy1CmiS9wUgQAUHI5a9Ax6hqwbgZnUG0Ka3BSaayQX0JtcHQV65Bq12EwUqLvkCBu6NAk0EawU1Fz0Bgx+G/
lpc_rms=-25.43
offset=7679
pitch_keycenter=E3
sample=Basstrombone_growl_FF_E4.opus
tune=-26
</region>

<region>
hikey=F2
hivel=127
lokey=E2
loop_end=200223
loop_mode=loop_continuous
loop_start=70724
loop_xfade=38849
lovel=1
lpc=HLM/Qv+bK8PQ9IpDWdGQw7kbcUMuPTTDR1TyQmt5jMIDuQ9CG0mRwTqp60AJfTZAW2c0wYTIgEG6aI3BlKiSQUHYlsGzHY5B6udRwTp4n0AnwipARTebwBOmHUDTUrK+
lpc_rms=-34.70
offset=4292
pitch_keycenter=E2
sample=Basstrombone_growl_FF_E3.opus
tune=-13
</region>

<region>
hikey=F1
hivel=127
lokey=E1
loop_end=201247
loop_mode=loop_continuous
loop_start=71086
loop_xfade=39048
lovel=1
lpc=zQcrQq+oEMOvQ05D0FAmw4HJv0JCj2LCr1ARQvzJkcHUGTZBdlyXwTj0zkF9RaPBImvpQBFXhEA/gx7BO3ISQd20M8DCbGDARUOyQB81t8AHgLhA6ExfwGfm6D7Jmak+
lpc_rms=-38.64
offset=8733
pitch_keycenter=E1
sample=Basstrombone_growl_FF_E2.opus
tune=-22
</region>

<region>
hikey=D#3
hivel=127
lokey=D3
loop_end=200734
loop_mode=loop_continuous
loop_start=70905
loop_xfade=38948
lovel=1
lpc=tCgeQq6fCsOtLllDYpJWw4ZEKENExPTCVWOmQm1XSMI5V+NBNsaNwT3NFkHTdKg/5bIzwecJhkGxh5HB1XGWQaBaosE9PKVB576EwTOG90AM64Q/26huwA7mpT9UFJk+
lpc_rms=-28.80
offset=3017
pitch_keycenter=D3
sample=Basstrombone_growl_FF_D4.opus
tune=-20
</region>

<region>
hikey=D#2
hivel=127
lokey=D2
loop_end=199467
loop_mode=loop_continuous
loop_start=70457
loop_xfade=38703
lovel=1
lpc=wWQ7QnGII8NSVIBDEwiDw2FUXEPtOirDJtrvQmzwl8JarTVChy/VwV2PPUHwV8w/Hi4owd43U0G5fjjBfeYoQdvkQ8E09U9BiQ8ewSG5WkAFRTRAhnuMwBttEEB7Qd2+
lpc_rms=-36.01
offset=4782
pitch_keycenter=D2
sample=Basstrombone_growl_FF_D3.opus
tune=-7
</region>

<region>
hikey=C#3
hivel=127
lokey=C3
loop_end=202277
loop_mode=loop_continuous
loop_start=71450
loop_xfade=39248
lovel=1
lpc=Q/vWQfhSq8L1YP9CMigFw3Id8kKkPszCd02fQhChZ8Ih3yZC98j1wUUtqkEA9j/BU5WAQAgk+z8hl7fAWLQUQWnpR8H6wlRBcy4rwd6QvkBvtwDAIkNFPxinjr9rDkU/
lpc_rms=-27.44
offset=5191
pitch_keycenter=C3
sample=Basstrombone_growl_FF_C4.opus
tune=-9
</region>

<region>
hikey=C#2
hivel=127
lokey=C2
loop_end=201638
loop_mode=loop_continuous
loop_start=71224
loop_xfade=39124
lovel=1
lpc=qhBVQqgiN8OI/odDfO10w9p9K0PUbeDCDVSHQrqbBsLZP2NBx6jGwMAYkj6LeeFAoBQ+wXsONkGqYNLAOSU7QJL8acBzNZVACGvWv4T7asC3lslAXwRmwBvMjT09UAY/
lpc_rms=-38.43
offset=4142
pitch_keycenter=C2
sample=Basstrombone_growl_FF_C3.opus
tune=-19
</region>

<region>
hivel=127
key=A#3
loop_end=225154
loop_mode=loop_continuous
loop_start=79531
loop_xfade=43686
lovel=1
lpc=JmYWQlv/88KFgDJDnIMuw0sqE0NvNeLCsceXQqQuOcJ++e1BXaO2wa6NgEHAR7vAYgJuwCb5LUE49XjBCnCWQbiCm8F+GolB+pJMwfGx0UAFT1m/+icVv23pA78tKUU/
lpc_rms=-23.55
offset=5709
sample=Basstrombone_growl_FF_A#4.opus
tune=-15
</region>

<region>
hikey=B2
hivel=127
lokey=A#2
loop_end=201825
loop_mode=loop_continuous
loop_start=71290
loop_xfade=39160
lovel=1
lpc=nasFQl9O6cLgXT5DUURRw+j8PUMUrBrDz83jQlJRmcKmBEhCA8EIwqL8tUHvgjrBIxcTQKCnk0BEAQ7BiG09QaeVZcFC8HRBsG1IweGxzEBbCu6++5nYv72TJj9XJHk+
lpc_rms=-28.38
offset=2341
pitch_keycenter=A#2
sample=Basstrombone_growl_FF_A#3.opus
tune=-18
</region>

<region>
hikey=B1
hivel=127
lokey=A#1
loop_end=203049
loop_mode=loop_continuous
loop_start=71722
loop_xfade=39398
lovel=1
lpc=hMMpQgxCBsM9zihDHbHiwho6gEIcaVLCACwfQjGYrcGKhjtBDVOIwNag2MBdtoFBCu+PwQYFPkG2dV/AyEWHv11SZT+N5hxA8WuewLNej0BdVXrANg6jQLexksD8pNk/
lpc_rms=-37.03
offset=4292
pitch_keycenter=A#1
sample=Basstrombone_growl_FF_A#2.opus
tune=-31
</region>
</group>